<svg width="238" height="50" viewBox="0 0 238 50" fill="none" xmlns="http://www.w3.org/2000/svg">
<path fill-rule="evenodd" clip-rule="evenodd" d="M9.84918 29.3671L7.52349 33.7375L7.52309 48.4193H-0.000822647L0.00047347 0.618069H7.52439L7.52382 21.4457L17.3739 0.618069H24.8978L14.4321 21.9237L24.8965 48.4193H17.1674L9.84918 29.3671ZM35.5186 37.4249C35.5186 39.1549 35.872 40.3727 36.5787 41.0783C37.2855 41.784 38.2317 42.1368 39.4173 42.1368C40.6029 42.1368 41.5491 41.784 42.2559 41.0783C42.9627 40.3727 43.3161 39.1549 43.3162 37.4249L43.3169 11.6123C43.3169 9.88235 42.9635 8.66457 42.2568 7.95893C41.55 7.25329 40.6038 6.90047 39.4182 6.90047C38.2326 6.90047 37.2864 7.25329 36.5796 7.95893C35.8728 8.66457 35.5194 9.88235 35.5193 11.6123L35.5186 37.4249ZM27.9949 12.0904C27.995 8.22078 28.9754 5.25031 30.9363 3.17892C32.8971 1.10752 35.7243 0.0718384 39.4178 0.0718384C43.1114 0.0718384 45.9385 1.10752 47.8993 3.17892C49.86 5.25031 50.8403 8.22078 50.8402 12.0904L50.8395 36.947C50.8394 40.8167 49.859 43.7872 47.8981 45.8586C45.9373 47.9299 43.1101 48.9656 39.4165 48.9656C35.7229 48.9656 32.8958 47.9299 30.9351 45.8586C28.9744 43.7872 27.9941 40.8167 27.9942 36.947L27.9949 12.0904ZM63.1718 13.7977L63.1708 48.4194H56.3993L56.4006 0.618207H65.8397L73.568 29.2306L73.5688 0.618207H80.2719L80.2706 48.4194H72.5415L63.1718 13.7977ZM85.4897 12.0904C85.4898 8.22081 86.4133 5.25033 88.2601 3.17894C90.107 1.10754 92.8771 0.0718595 96.5707 0.0718595C100.264 0.0718595 103.034 1.10754 104.881 3.17894C106.728 5.25033 107.651 8.22081 107.651 12.0904L107.651 13.5928H100.537L100.538 11.6124C100.538 9.88248 100.207 8.6647 99.5459 7.95906C98.8847 7.25342 97.9613 6.9006 96.7757 6.9006C95.5901 6.9006 94.6667 7.25342 94.0055 7.95906C93.3443 8.6647 93.0137 9.88248 93.0136 11.6124C93.0136 13.2513 93.3783 14.6967 94.1079 15.9487C94.8375 17.2006 95.7494 18.3843 96.8438 19.4996C97.9381 20.615 99.1123 21.7303 100.366 22.8457C101.62 23.9611 102.794 25.1789 103.889 26.4991C104.983 27.8193 105.895 29.3216 106.625 31.0061C107.354 32.6905 107.719 34.6708 107.719 36.9471C107.719 40.8167 106.772 43.7872 104.88 45.8586C102.988 47.93 100.195 48.9656 96.501 48.9656C92.8074 48.9656 90.0145 47.93 88.1222 45.8586C86.2298 43.7872 85.2837 40.8167 85.2838 36.9471L85.2839 34.0107H92.3974L92.3973 37.4251C92.3973 39.155 92.7507 40.3614 93.4574 41.0443C94.1642 41.7272 95.1104 42.0686 96.296 42.0686C97.4816 42.0686 98.4278 41.7272 99.1346 41.0443C99.8414 40.3614 100.195 39.155 100.195 37.4251C100.195 35.7862 99.8302 34.3408 99.1006 33.0888C98.371 31.8369 97.4591 30.6532 96.3647 29.5379C95.2704 28.4225 94.0962 27.3072 92.8422 26.1918C91.5883 25.0764 90.4141 23.8587 89.3198 22.5384C88.2254 21.2182 87.3135 19.7159 86.5839 18.0315C85.8544 16.347 85.4897 14.3667 85.4897 12.0904ZM110.612 0.618046H133.868L133.868 7.44679H126.002L126.001 48.4192H118.477L118.478 7.44679H110.612L110.612 0.618046ZM153.653 48.4192C153.562 48.1005 153.47 47.8046 153.379 47.5315C153.288 47.2583 153.208 46.9169 153.14 46.5072C153.072 46.0974 153.026 45.5739 153.003 44.9366C152.98 44.2992 152.969 43.5025 152.969 42.5465L152.969 35.0349C152.969 32.8041 152.582 31.2336 151.807 30.3231C151.031 29.4125 149.777 28.9573 148.045 28.9573H145.445L145.445 48.4192H137.921L137.922 0.618024H149.277C153.198 0.618024 156.037 1.52851 157.792 3.34952C159.548 5.17053 160.425 7.92476 160.425 11.6123L160.425 15.3681C160.425 20.2848 158.784 23.5171 155.5 25.0649C157.415 25.8388 158.726 27.1022 159.433 28.8549C160.14 30.6076 160.493 32.7359 160.493 35.2397L160.493 42.6148C160.493 43.7984 160.538 44.8341 160.63 45.7219C160.721 46.6096 160.949 47.5087 161.314 48.4192H153.653ZM145.447 7.4469L145.446 22.1287H148.387C149.801 22.1287 150.907 21.7645 151.705 21.0361C152.503 20.3077 152.902 18.9875 152.902 17.0754L152.902 12.3636C152.902 10.6336 152.594 9.38172 151.979 8.60779C151.363 7.83386 150.394 7.4469 149.072 7.4469H145.447ZM173.373 0.618188L173.372 37.4934C173.372 39.2233 173.725 40.4297 174.432 41.1126C175.139 41.7955 176.085 42.1369 177.271 42.1369C178.456 42.1369 179.402 41.7955 180.109 41.1126C180.816 40.4297 181.169 39.2233 181.169 37.4934L181.17 0.618188H188.284L188.283 37.0154C188.283 40.885 187.337 43.8555 185.444 45.9269C183.552 47.9983 180.759 49.034 177.065 49.034C173.372 49.034 170.579 47.9983 168.686 45.9269C166.794 43.8555 165.848 40.885 165.848 37.0154L165.849 0.618188H173.373ZM214.744 0.618202H238L238 7.44694H230.134L230.133 48.4194H222.609L222.61 7.44694H214.744L214.744 0.618202Z" fill="#1A1A1A"/>
</svg>
